inDegrees=no
num_controls=7
num_derivatives=13
num_iterations=70
num_multipliers=7
num_parameters=0
num_slacks=7
num_states=26
objective=0.426029
objective_accelerations=0.060096
objective_balance=0.001338
objective_effort=0.015110
objective_height=0.343571
objective_ligament=0.005915
solver_duration=990.352716
status=Solve_Succeeded
success=true
DataType=double
version=3
OpenSimVersion=4.5
endheader
time	/jointset/ground_pelvis/pelvis_tilt/value	/jointset/ground_pelvis/pelvis_tx/value	/jointset/ground_pelvis/pelvis_ty/value	/jointset/hip_l/hip_flexion_l/value	/jointset/hip_l/hip_adduction_l/value	/jointset/hip_l/hip_rotation_l/value	/jointset/back/lumbar_extension/value	/jointset/patellofemoral_l/patellar_flexion_l/value	/jointset/knee_l/knee_flexion_l/value	/jointset/knee_l/knee_adduction_l/value	/jointset/knee_l/knee_rotation_l/value	/jointset/ankle_l/ankle_angle_l/value	/jointset/subtalar_l/subtalar_angle_l/value	/jointset/ground_pelvis/pelvis_tilt/speed	/jointset/ground_pelvis/pelvis_tx/speed	/jointset/ground_pelvis/pelvis_ty/speed	/jointset/hip_l/hip_flexion_l/speed	/jointset/hip_l/hip_adduction_l/speed	/jointset/hip_l/hip_rotation_l/speed	/jointset/back/lumbar_extension/speed	/jointset/patellofemoral_l/patellar_flexion_l/speed	/jointset/knee_l/knee_flexion_l/speed	/jointset/knee_l/knee_adduction_l/speed	/jointset/knee_l/knee_rotation_l/speed	/jointset/ankle_l/ankle_angle_l/speed	/jointset/subtalar_l/subtalar_angle_l/speed	/forceset/tau_hip_flexion_l	/forceset/tau_hip_adduction_l	/forceset/tau_hip_rotation_l	/forceset/tau_knee_flexion_l	/forceset/tau_ankle_angle_l	/forceset/tau_subtalar_angle_l	/forceset/tau_lumbar_extension	lambda_cid13_p0	lambda_cid13_p1	lambda_cid13_p2	lambda_cid13_p3	lambda_cid13_p4	lambda_cid13_p5	lambda_cid14_p0	/jointset/ground_pelvis/pelvis_tilt/accel	/jointset/ground_pelvis/pelvis_tx/accel	/jointset/ground_pelvis/pelvis_ty/accel	/jointset/hip_l/hip_flexion_l/accel	/jointset/hip_l/hip_adduction_l/accel	/jointset/hip_l/hip_rotation_l/accel	/jointset/back/lumbar_extension/accel	/jointset/patellofemoral_l/patellar_flexion_l/accel	/jointset/knee_l/knee_flexion_l/accel	/jointset/knee_l/knee_adduction_l/accel	/jointset/knee_l/knee_rotation_l/accel	/jointset/ankle_l/ankle_angle_l/accel	/jointset/subtalar_l/subtalar_angle_l/accel	gamma_cid13_p0	gamma_cid13_p1	gamma_cid13_p2	gamma_cid13_p3	gamma_cid13_p4	gamma_cid13_p5	gamma_cid14_p0
0.5	-0.2117779669782456	0.02646845336799707	0.7689189088003054	1.001571630755076	-0.3598809555584812	-0.005149686637043138	-0.4009563686894338	0.9725501459388159	0.9725501459388445	-0.02133799200060231	-0.1745005087588167	0.3129517363902146	0.1680654760319854	-0.7385965609709592	-0.1729550685520212	-0.5416283530491888	2.422316614639592	0.04659119446212758	0.5140621255413911	-0.309664121632548	2.045653967976554	2.045653967976217	0.3565297216226329	0.0006708479897938659	0.5324976666136521	0.2894732174328555	-0.09624194429388892	0.05383358949496484	-0.003057902258525786	-0.2146360640111208	0.03194788558126813	-0.003638823853555025	0.11185791856008	-15.72650321015817	8.531918221241886	-6.436334469950858	-5.208951055575285	-438.275470201269	-43.32900098083801	-4.413151269389825	0.2743632305178951	0.5122934970507503	-0.5023252900060826	-1.221988224387163	0.0499105712572436	-0.8556926090177061	1.432508066610431	-1.557557680928695	-1.557557680928691	-0.161982424719694	-0.01337179357549683	-0.7699368206684424	0.08514139391398612	-5.063869965140199e-07	5.904209353751685e-07	7.704312239923349e-06	5.52930656804987e-07	-1.488551987295926e-06	-6.752126475234284e-07	-8.504320080169785e-07
0.51	-0.2191481858916884	0.02476481914903939	0.7634789355694611	1.025728579262688	-0.3594152793313043	-4.445053028673844e-05	-0.4039822224993905	0.9929249317488933	0.9929249317489288	-0.01779191014238934	-0.1744936337000969	0.3182364686502482	0.1709597397889567	-0.7353477958544946	-0.1677500669353476	-0.5462342774876811	2.408733113783822	0.04654495216603906	0.5068927096281973	-0.2954759637435775	2.028992216930421	2.028992216930379	0.3527157712362397	0.0006645918254348791	0.5243684121688024	0.2893335102734496	-0.1009288009677445	0.05497842495831962	-0.003444650462758846	-0.2174068408714147	0.03063270028450806	-0.003214211469646557	0.1154834217560732	-16.36334030727282	8.651838921719671	-6.675707009509432	-5.073459930382626	-441.842227275187	-43.34154509546361	-3.804983578932783	0.3650278839600799	0.5279762806979511	-0.4202146382163798	-1.477578303562428	-0.0329955009404513	-0.662260985301415	1.416571142357273	-1.766963042950394	-1.766963042906249	-0.4865579476200387	0.001305742874385772	-0.8464482010953378	-0.0714818393001351	-4.831998723968569e-07	9.636816997129277e-07	7.666665848900624e-06	5.962920882477417e-07	-1.421054922955872e-06	-2.482773814222961e-07	-8.246288522208278e-07
0.52	-0.2264829382076172	0.02311390950359283	0.757996805370743	1.049739483304261	-0.3589502863012677	0.004986152436766898	-0.4068652744319946	1.013123804203216	1.013123804203252	-0.01428305910844367	-0.1744877095488594	0.3234375026768946	0.1738510154606475	-0.7315032414680528	-0.1624101538497961	-0.5500597466239747	2.393107721432433	0.04645455503401449	0.4991354976017551	-0.2811037461619266	2.010471296824495	2.010471296824746	0.3490835567690075	0.0004806664906925052	0.5157580199358687	0.2888756003767516	-0.1056156576416259	0.05612326042163793	-0.003831398667026175	-0.2201776177317153	0.02931751498774011	-0.002789599085791133	0.1191089249520457	-16.99455189715509	8.763606920337214	-6.905588178240317	-4.992111459585897	-445.3154933837019	-43.47289554167165	-3.247890336854079	0.3935210845133168	0.5392757908263157	-0.3462342295663663	-1.630366523511134	0.04107960407001239	-0.9732518316674389	1.469320005146513	-1.929391492887537	-1.929391492887561	-0.1256352408875117	-0.0489056276522477	-0.8661643782852699	0.02150084645553542	-4.60298416317434e-07	1.23523509060813e-06	7.57243817988777e-06	6.237422064341062e-07	-1.352853546405371e-06	1.14963620145566e-07	-8.002418993242002e-07
0.53	-0.2337762527945539	0.02151701377155597	0.7524803125704093	1.073584224313147	-0.3584863933004437	0.009938709496806176	-0.4096035541208123	1.03312874393845	1.033128743938468	-0.0108114882485633	-0.1744833657200119	0.3285502801276848	0.1767361141800852	-0.7270452130354078	-0.156952402039502	-0.5531060743883927	2.375502003789943	0.04630523999589347	0.4914888634258956	-0.2665226675601858	1.990244668297975	1.990244668298093	0.3450669799165393	0.0004305844824965929	0.5067320657836761	0.2880688314464088	-0.1105675012933405	0.05705751258683366	-0.004029526771603488	-0.2227390114680058	0.02745890302102996	-0.002453976996011758	0.1228859772493299	-17.82165103052929	8.935943385658792	-7.130990344483671	-4.707054973311731	-448.9177096637247	-43.53454907978311	-2.740649294889456	0.4890992482051324	0.5516410858932456	-0.2641845978544581	-1.8764903504008	-0.04699622768052943	-0.6441877914706539	1.456930393935972	-2.109938334667162	-2.109938334687146	-0.5640107140031828	0.02480012573024224	-0.9305723526213032	-0.1441785512477597	-3.513616116921886e-07	3.080478148188289e-07	5.444681490210637e-06	3.69765298158356e-07	-1.01628764971391e-06	-2.199928657851335e-07	-6.284504395702882e-07
0.54	-0.2410215559920516	0.01997521879957443	0.7469372859828366	1.097242744952449	-0.3580248052839861	0.01481803649889944	-0.4121951373023634	1.052923289427994	1.052923289427992	-0.007384951518524394	-0.1744779507886086	0.3335708457531669	0.1796106626525258	-0.7219009635801586	-0.1513900018387319	-0.5553665040717852	2.355863647516133	0.04599355816068038	0.4844894860130185	-0.2517644447085169	1.96839244768614	1.968392447686125	0.340076730801001	0.0006948869996396241	0.4973156548740814	0.286765550977322	-0.1155193449450759	0.05799176475201038	-0.004227654876167468	-0.2253004052042972	0.02560029105431735	-0.002118354906260374	0.1266630295465953	-18.64448219830318	9.100742299035888	-7.347431137735502	-4.471153564275663	-452.4444220259222	-43.71074516563222	-2.28183580040023	0.5307652890341327	0.5602054689215076	-0.1890546133612772	-2.036894249775443	0.008606244651578061	-0.8438004790709837	1.504748855132124	-2.254509909950497	-2.254509909950514	-0.3203696935015698	0.01397127741548436	-0.9442557297657606	-0.07780146129330849	-1.472367618673087e-07	-1.945405730493769e-06	1.067062905330447e-06	-1.955776819478228e-07	-3.828078158452139e-07	-1.327423167671697e-06	-2.935731424423575e-07
0.55	-0.2482125562494864	0.01848938499301828	0.7413755828514166	1.120695680036605	-0.3575653508790307	0.01961746908935343	-0.4146384456595598	1.072491291808788	1.072491291808787	-0.003999484179772153	-0.1744733569510281	0.3384957424434062	0.1824725673035931	-0.7162106944962021	-0.1457735946704795	-0.5568392671348107	2.33441854919745	0.04587384041393835	0.4755018446929211	-0.2369194118361994	1.944931076080287	1.94493107608023	0.3368603745874656	0.0002799971668188903	0.4875846502779094	0.2855251691364208	-0.1200879993768097	0.05878286240323407	-0.004367888706593561	-0.22833597056597	0.02409901472515159	-0.001927178468034048	0.1300750740578848	-19.37790993424218	9.339208350846603	-7.60598744319822	-4.176088276162361	-456.0209271066907	-43.82922034048825	-1.869950711025425	0.6013907225034604	0.5627322717282123	-0.1061663458409386	-2.244061303403661	-0.02538049206349407	-0.9106593151879594	1.471052737500467	-2.433471462192395	-2.433471462198642	-0.3461532836492002	-0.06116768110757208	-0.9995278601205311	-0.1600276604137143	-3.736243953776324e-08	-3.080879817423624e-06	-1.230137858975739e-06	-4.894525781191531e-07	-4.024154557493377e-08	-1.883996676240648e-06	-1.145372019955643e-07
0.5600000000000001	-0.2553440072151972	0.0170597900443348	0.7358031962507529	1.143925015401473	-0.3571077175930888	0.02433014259526445	-0.4169339692411896	1.091816376338266	1.091816376338266	-0.0006509573428255455	-0.1744713017252681	0.3433209280805689	0.1853194939132662	-0.7099911052351601	-0.1401422302641961	-0.5575031979205266	2.311143703659213	0.04562933435814195	0.4671376691044703	-0.2222074895951222	1.919808877422847	1.919808877422749	0.3326886304391413	0.0001871646349295071	0.4773734442586331	0.2837699426985122	-0.1246566538085634	0.05957396005444868	-0.004508122536946279	-0.2313715359276447	0.02259773839598597	-0.001736002029820841	0.1334871185691548	-20.11111209875936	9.570866666541685	-7.855729542914372	-3.891333162594835	-459.5813240356944	-43.97019920697939	-1.50322087044204	0.6366293244512499	0.5631969165277162	-0.0272881578993848	-2.402843693686179	-0.01635141715931177	-0.7191073327416523	1.478126728884054	-2.58667532026773	-2.586675320267742	-0.5114472804593782	0.07838273760171521	-1.040296014386648	-0.1807703806947905	-4.058875020261546e-08	-2.874778554294229e-06	-1.030837238593201e-06	-4.57565773568676e-07	-4.6771551622741e-08	-1.779542032828484e-06	-1.2251088956613e-07
